<svg width="26" height="29" viewBox="0 0 26 29" fill="none" xmlns="http://www.w3.org/2000/svg">
<path d="M4.79546 28.9248C3.9213 28.9248 3.17298 28.6202 2.55047 28.0109C1.92797 27.4017 1.61672 26.6693 1.61672 25.8137V5.59147C1.16639 5.59147 0.788918 5.4424 0.484288 5.14425C0.179659 4.8461 0.0273438 4.47666 0.0273438 4.03592C0.0273438 3.59518 0.179659 3.22573 0.484288 2.92758C0.788918 2.62943 1.16639 2.48036 1.61672 2.48036H7.9742C7.9742 2.03962 8.12652 1.67018 8.43115 1.37203C8.73578 1.07388 9.11325 0.924805 9.56357 0.924805H15.9211C16.3714 0.924805 16.7489 1.07388 17.0535 1.37203C17.3581 1.67018 17.5104 2.03962 17.5104 2.48036H23.8679C24.3182 2.48036 24.6957 2.62943 25.0003 2.92758C25.305 3.22573 25.4573 3.59518 25.4573 4.03592C25.4573 4.47666 25.305 4.8461 25.0003 5.14425C24.6957 5.4424 24.3182 5.59147 23.8679 5.59147V25.8137C23.8679 26.6693 23.5567 27.4017 22.9342 28.0109C22.3117 28.6202 21.5633 28.9248 20.6892 28.9248H4.79546ZM20.6892 5.59147H4.79546V25.8137H20.6892V5.59147ZM12.7423 17.8804L15.7621 20.8359C16.0535 21.1211 16.4244 21.2637 16.8747 21.2637C17.325 21.2637 17.6959 21.1211 17.9872 20.8359C18.2786 20.5507 18.4243 20.1878 18.4243 19.747C18.4243 19.3063 18.2786 18.9433 17.9872 18.6581L14.9674 15.7026L17.9872 12.747C18.2786 12.4618 18.4243 12.0989 18.4243 11.6581C18.4243 11.2174 18.2786 10.8544 17.9872 10.5692C17.6959 10.2841 17.325 10.1415 16.8747 10.1415C16.4244 10.1415 16.0535 10.2841 15.7621 10.5692L12.7423 13.5248L9.72251 10.5692C9.43113 10.2841 9.06027 10.1415 8.60995 10.1415C8.15963 10.1415 7.78878 10.2841 7.49739 10.5692C7.20601 10.8544 7.06031 11.2174 7.06031 11.6581C7.06031 12.0989 7.20601 12.4618 7.49739 12.747L10.5172 15.7026L7.49739 18.6581C7.20601 18.9433 7.06031 19.3063 7.06031 19.747C7.06031 20.1878 7.20601 20.5507 7.49739 20.8359C7.78878 21.1211 8.15963 21.2637 8.60995 21.2637C9.06027 21.2637 9.43113 21.1211 9.72251 20.8359L12.7423 17.8804Z" fill="white"/>
</svg>
