<svg width="26" height="29" viewBox="0 0 26 29" fill="none" xmlns="http://www.w3.org/2000/svg">
<path d="M3.00412 28.9248C2.30374 28.9248 1.70417 28.6754 1.20541 28.1767C0.706654 27.6779 0.457275 27.0783 0.457275 26.378C0.457275 25.6776 0.706654 25.078 1.20541 24.5793C1.70417 24.0805 2.30374 23.8311 3.00412 23.8311H23.3789C24.0793 23.8311 24.6788 24.0805 25.1776 24.5793C25.6763 25.078 25.9257 25.6776 25.9257 26.378C25.9257 27.0783 25.6763 27.6779 25.1776 28.1767C24.6788 28.6754 24.0793 28.9248 23.3789 28.9248H3.00412ZM4.27754 21.2843C3.91674 21.2843 3.6143 21.1622 3.37023 20.9182C3.12616 20.6741 3.00412 20.3717 3.00412 20.0109V17.0501C3.00412 16.8804 3.03595 16.7159 3.09963 16.5567C3.1633 16.3975 3.2588 16.2543 3.38615 16.1269L14.5286 4.98447L19.3039 9.7598L8.16148 20.9022C8.03413 21.0296 7.89088 21.1251 7.7317 21.1888C7.57252 21.2524 7.40804 21.2843 7.23825 21.2843H4.27754ZM5.55096 18.7374H6.69704L15.7383 9.7598L14.5286 8.55005L5.55096 17.5914V18.7374ZM20.7365 8.35904L15.9612 3.58371L18.2533 1.29155C18.4868 1.03687 18.7839 0.91483 19.1447 0.925441C19.5055 0.936053 19.8027 1.05809 20.0361 1.29155L23.0287 4.28409C23.2621 4.51755 23.3789 4.80938 23.3789 5.15957C23.3789 5.50976 23.2621 5.8122 23.0287 6.06688L20.7365 8.35904Z" fill="white"/>
</svg>
